<svg width="528" height="104" viewBox="0 0 528 104" fill="none" xmlns="http://www.w3.org/2000/svg">
<path d="M17.1495 4.01698C12.3962 4.01698 10.0195 8.60164 10.0195 17.771V21.405C10.0195 25.7596 10.6482 29.179 11.9055 31.663C13.1628 34.1163 15.0182 35.343 17.4715 35.343C20.8448 35.343 23.9422 32.0616 26.7635 25.499H27.5915L27.2695 35.757H26.7635C26.5795 35.4196 26.4108 35.1896 26.2575 35.067C26.1042 34.9136 25.8742 34.837 25.5675 34.837C25.2915 34.837 24.1875 35.0823 22.2555 35.573C20.3235 36.033 18.3608 36.263 16.3675 36.263C11.3688 36.263 7.48951 34.9136 4.72951 32.215C2.00018 29.5163 0.635512 25.4683 0.635512 20.071C0.635512 14.643 2.06151 10.457 4.91351 7.51298C7.79618 4.56898 11.6602 3.09698 16.5055 3.09698C18.3762 3.09698 20.2008 3.34231 21.9795 3.83298C23.7888 4.29298 24.8468 4.52298 25.1535 4.52298C25.4602 4.52298 25.6902 4.46164 25.8435 4.33898C25.9968 4.18564 26.1655 3.94031 26.3495 3.60298H26.8555L27.2235 13.585H26.3955C25.0155 10.4876 23.5895 8.12631 22.1175 6.50098C20.6762 4.84498 19.0202 4.01698 17.1495 4.01698ZM45.3781 26.741V22.831C45.3781 19.8563 45.2094 17.6943 44.8721 16.345C44.5654 14.965 43.8294 14.275 42.6641 14.275C41.9894 14.275 41.4374 14.4743 41.0081 14.873C40.6094 15.241 40.3181 15.8696 40.1341 16.759C39.8581 18.139 39.7201 20.2396 39.7201 23.061V26.649C39.7201 29.9916 39.8121 32.0003 39.9961 32.675C40.2107 33.3496 40.4254 33.9016 40.6401 34.331C40.9774 35.067 41.6367 35.435 42.6181 35.435C43.8141 35.435 44.5961 34.745 44.9641 33.365C45.2401 32.3836 45.3781 30.1756 45.3781 26.741ZM42.5261 36.263C38.6927 36.263 35.7947 35.2816 33.8321 33.319C31.8694 31.3563 30.8881 28.5503 30.8881 24.901C30.8881 21.221 31.9307 18.3996 34.0161 16.437C36.1321 14.4436 39.0914 13.447 42.8941 13.447C46.6967 13.447 49.5334 14.367 51.4041 16.207C53.2747 18.0163 54.2101 20.7916 54.2101 24.533C54.2101 32.353 50.3154 36.263 42.5261 36.263ZM55.5886 13.907H66.6746V18.139C67.1653 16.7283 67.9166 15.5936 68.9286 14.735C69.9406 13.8763 71.474 13.447 73.5286 13.447C78.282 13.447 80.6586 16.0076 80.6586 21.129V34.975H83.2346V35.803H70.2166V34.975H72.1026V20.025C72.1026 18.185 71.98 17.0043 71.7346 16.483C71.4893 15.931 71.0446 15.655 70.4006 15.655C69.4193 15.655 68.5453 16.299 67.7786 17.587C67.0426 18.875 66.6746 20.439 66.6746 22.279V34.975H68.6526V35.803H55.5886V34.975H58.1186V14.735H55.5886V13.907ZM97.7803 1.02698C96.615 1.02698 95.8483 1.47164 95.4803 2.36098C95.1123 3.21964 94.9283 4.61498 94.9283 6.54698V13.907H101V14.735H94.9283V34.975H100.54V35.803H83.8423V34.975H86.3723V14.735H83.7043V13.907H86.3723V13.723C86.3723 9.30698 87.2157 5.96431 88.9023 3.69498C90.589 1.39498 93.4103 0.244976 97.3663 0.244976C99.973 0.244976 101.844 0.76631 102.978 1.80898C104.113 2.82098 104.68 4.00164 104.68 5.35098C104.68 6.70031 104.328 7.71231 103.622 8.38698C102.917 9.06164 101.982 9.39898 100.816 9.39898C99.651 9.39898 98.7463 9.10764 98.1023 8.52498C97.489 7.91164 97.1823 7.22164 97.1823 6.45498C97.1823 5.65764 97.2743 4.89098 97.4583 4.15498H99.2063C99.8197 2.06964 99.3443 1.02698 97.7803 1.02698ZM112.651 36.263C108.695 36.263 105.721 35.251 103.727 33.227C101.765 31.1723 100.783 28.3356 100.783 24.717C100.783 21.0676 101.887 18.277 104.095 16.345C106.334 14.413 109.171 13.447 112.605 13.447C119.567 13.447 122.909 16.943 122.633 23.935H109.661V25.729C109.661 28.7343 110.045 31.0036 110.811 32.537C111.578 34.0703 112.912 34.837 114.813 34.837C118.371 34.837 120.701 32.9356 121.805 29.133L122.633 29.271C122.051 31.479 120.993 33.1963 119.459 34.423C117.957 35.6496 115.687 36.263 112.651 36.263ZM109.707 23.015H114.445V20.761C114.445 18.277 114.292 16.5903 113.985 15.701C113.709 14.781 113.127 14.321 112.237 14.321C111.379 14.321 110.735 14.8116 110.305 15.793C109.907 16.7436 109.707 18.3996 109.707 20.761V23.015ZM139.636 15.195C138.501 15.195 137.505 15.931 136.646 17.403C135.787 18.875 135.358 20.623 135.358 22.647V34.975H138.624V35.803H124.272V34.975H126.802V14.735H124.272V13.907H135.358V18.323C135.757 16.759 136.523 15.563 137.658 14.735C138.793 13.8763 140.081 13.447 141.522 13.447C142.963 13.447 144.129 13.861 145.018 14.689C145.938 15.4863 146.398 16.6363 146.398 18.139C146.398 19.611 146.061 20.7456 145.386 21.543C144.711 22.3403 143.669 22.739 142.258 22.739C140.878 22.739 139.851 22.279 139.176 21.359C138.532 20.439 138.455 19.1663 138.946 17.541H140.602C141.369 15.977 141.047 15.195 139.636 15.195ZM158.921 36.263C154.965 36.263 151.99 35.251 149.997 33.227C148.034 31.1723 147.053 28.3356 147.053 24.717C147.053 21.0676 148.157 18.277 150.365 16.345C152.603 14.413 155.44 13.447 158.875 13.447C165.836 13.447 169.179 16.943 168.903 23.935H155.931V25.729C155.931 28.7343 156.314 31.0036 157.081 32.537C157.847 34.0703 159.181 34.837 161.083 34.837C164.64 34.837 166.971 32.9356 168.075 29.133L168.903 29.271C168.32 31.479 167.262 33.1963 165.729 34.423C164.226 35.6496 161.957 36.263 158.921 36.263ZM155.977 23.015H160.715V20.761C160.715 18.277 160.561 16.5903 160.255 15.701C159.979 14.781 159.396 14.321 158.507 14.321C157.648 14.321 157.004 14.8116 156.575 15.793C156.176 16.7436 155.977 18.3996 155.977 20.761V23.015ZM170.634 13.907H181.72V18.139C182.21 16.7283 182.962 15.5936 183.974 14.735C184.986 13.8763 186.519 13.447 188.574 13.447C193.327 13.447 195.704 16.0076 195.704 21.129V34.975H198.28V35.803H185.262V34.975H187.148V20.025C187.148 18.185 187.025 17.0043 186.78 16.483C186.534 15.931 186.09 15.655 185.446 15.655C184.464 15.655 183.59 16.299 182.824 17.587C182.088 18.875 181.72 20.439 181.72 22.279V34.975H183.698V35.803H170.634V34.975H173.164V14.735H170.634V13.907ZM211.767 14.275C210.418 14.275 209.452 15.011 208.869 16.483C208.287 17.955 207.995 20.393 207.995 23.797V26.189C207.995 29.225 208.333 31.4023 209.007 32.721C209.682 34.0396 210.924 34.699 212.733 34.699C214.543 34.699 215.984 34.0856 217.057 32.859C218.131 31.6323 218.821 30.237 219.127 28.673L219.955 28.765C219.373 31.4023 218.299 33.3036 216.735 34.469C215.141 35.665 212.948 36.263 210.157 36.263C206.6 36.263 203.871 35.3123 201.969 33.411C200.068 31.479 199.117 28.673 199.117 24.993C199.117 21.2823 200.191 18.4303 202.337 16.437C204.515 14.4436 207.535 13.447 211.399 13.447C214.129 13.447 216.214 13.9836 217.655 15.057C219.097 16.0996 219.817 17.4183 219.817 19.013C219.817 20.6076 219.465 21.773 218.759 22.509C218.085 23.245 217.134 23.613 215.907 23.613C214.711 23.613 213.745 23.291 213.009 22.647C212.273 22.003 211.905 21.0523 211.905 19.795C211.905 19.243 211.982 18.691 212.135 18.139H213.653C213.868 17.5256 213.975 16.9736 213.975 16.483C213.975 15.011 213.239 14.275 211.767 14.275ZM233.222 36.263C229.266 36.263 226.291 35.251 224.298 33.227C222.335 31.1723 221.354 28.3356 221.354 24.717C221.354 21.0676 222.458 18.277 224.666 16.345C226.904 14.413 229.741 13.447 233.176 13.447C240.137 13.447 243.48 16.943 243.204 23.935H230.232V25.729C230.232 28.7343 230.615 31.0036 231.382 32.537C232.148 34.0703 233.482 34.837 235.384 34.837C238.941 34.837 241.272 32.9356 242.376 29.133L243.204 29.271C242.621 31.479 241.563 33.1963 240.03 34.423C238.527 35.6496 236.258 36.263 233.222 36.263ZM230.278 23.015H235.016V20.761C235.016 18.277 234.862 16.5903 234.556 15.701C234.28 14.781 233.697 14.321 232.808 14.321C231.949 14.321 231.305 14.8116 230.876 15.793C230.477 16.7436 230.278 18.3996 230.278 20.761V23.015ZM277.856 3.60298H290.138V4.47698H287.608V34.929H290.138V35.803H276.108V34.929H278.638V6.17898H278.454L271.554 35.803H265.804L257.708 6.04098H257.524V34.929H260.054V35.803H253.798V34.929H256.328V4.47698H253.798V3.60298H266.218L272.336 27.293L277.856 3.60298ZM302.781 24.993H304.115V21.451C304.115 18.5376 303.946 16.5903 303.609 15.609C303.302 14.597 302.689 14.091 301.769 14.091C301.217 14.091 300.711 14.2443 300.251 14.551C299.821 14.827 299.607 15.2256 299.607 15.747C299.607 16.2376 299.699 16.7436 299.883 17.265H301.033C301.278 17.909 301.401 18.691 301.401 19.611C301.401 20.5003 301.017 21.2823 300.251 21.957C299.484 22.601 298.518 22.923 297.353 22.923C294.715 22.923 293.397 21.6503 293.397 19.105C293.397 15.333 296.601 13.447 303.011 13.447C306.66 13.447 309.175 14.0756 310.555 15.333C311.965 16.5596 312.671 18.829 312.671 22.141V31.479C312.671 33.0736 313.115 33.871 314.005 33.871C315.047 33.871 315.661 32.2916 315.845 29.133L316.535 29.179C316.412 31.8776 315.906 33.733 315.017 34.745C314.127 35.757 312.671 36.263 310.647 36.263C306.967 36.263 304.851 35.1283 304.299 32.859C303.9 34.0243 303.302 34.883 302.505 35.435C301.707 35.987 300.542 36.263 299.009 36.263C294.47 36.263 292.201 34.4076 292.201 30.697C292.201 28.5196 293.059 27.0323 294.777 26.235C296.525 25.407 299.193 24.993 302.781 24.993ZM300.941 30.651C300.941 32.2456 301.017 33.273 301.171 33.733C301.355 34.193 301.677 34.423 302.137 34.423C302.627 34.423 303.072 34.0396 303.471 33.273C303.9 32.4756 304.115 31.387 304.115 30.007V25.729H303.793C301.891 25.729 300.941 27.1243 300.941 29.915V30.651ZM317.079 13.907H328.165V18.139C328.656 16.7283 329.407 15.5936 330.419 14.735C331.431 13.8763 332.964 13.447 335.019 13.447C339.772 13.447 342.149 16.0076 342.149 21.129V34.975H344.725V35.803H331.707V34.975H333.593V20.025C333.593 18.185 333.47 17.0043 333.225 16.483C332.98 15.931 332.535 15.655 331.891 15.655C330.91 15.655 330.036 16.299 329.269 17.587C328.533 18.875 328.165 20.439 328.165 22.279V34.975H330.143V35.803H317.079V34.975H319.609V14.735H317.079V13.907ZM356.373 24.993H357.707V21.451C357.707 18.5376 357.538 16.5903 357.201 15.609C356.894 14.597 356.281 14.091 355.361 14.091C354.809 14.091 354.303 14.2443 353.843 14.551C353.413 14.827 353.199 15.2256 353.199 15.747C353.199 16.2376 353.291 16.7436 353.475 17.265H354.625C354.87 17.909 354.993 18.691 354.993 19.611C354.993 20.5003 354.609 21.2823 353.843 21.957C353.076 22.601 352.11 22.923 350.945 22.923C348.307 22.923 346.989 21.6503 346.989 19.105C346.989 15.333 350.193 13.447 356.603 13.447C360.252 13.447 362.767 14.0756 364.147 15.333C365.557 16.5596 366.263 18.829 366.263 22.141V31.479C366.263 33.0736 366.707 33.871 367.597 33.871C368.639 33.871 369.253 32.2916 369.437 29.133L370.127 29.179C370.004 31.8776 369.498 33.733 368.609 34.745C367.719 35.757 366.263 36.263 364.239 36.263C360.559 36.263 358.443 35.1283 357.891 32.859C357.492 34.0243 356.894 34.883 356.097 35.435C355.299 35.987 354.134 36.263 352.601 36.263C348.062 36.263 345.793 34.4076 345.793 30.697C345.793 28.5196 346.651 27.0323 348.369 26.235C350.117 25.407 352.785 24.993 356.373 24.993ZM354.533 30.651C354.533 32.2456 354.609 33.273 354.763 33.733C354.947 34.193 355.269 34.423 355.729 34.423C356.219 34.423 356.664 34.0396 357.063 33.273C357.492 32.4756 357.707 31.387 357.707 30.007V25.729H357.385C355.483 25.729 354.533 27.1243 354.533 29.915V30.651ZM388.8 11.515L390.088 10.733C390.272 9.78231 389.904 9.30698 388.984 9.30698C387.665 9.30698 387.006 10.319 387.006 12.343C387.006 13.1403 387.113 14.0603 387.328 15.103C389.659 16.667 390.824 18.6756 390.824 21.129C390.824 23.5516 389.981 25.4376 388.294 26.787C386.607 28.1363 384.323 28.811 381.44 28.811C380.244 28.811 379.002 28.6883 377.714 28.443C376.365 29.3016 375.69 29.9456 375.69 30.375C375.69 30.8043 376.671 31.019 378.634 31.019H383.326C390.287 31.019 393.768 33.5183 393.768 38.517C393.768 41.2156 392.71 43.347 390.594 44.911C388.509 46.5056 385.243 47.303 380.796 47.303C373.221 47.303 369.434 45.6623 369.434 42.381C369.434 40.6023 370.615 39.3756 372.976 38.701L375.736 39.943C375.491 40.8323 375.368 41.6756 375.368 42.473C375.368 45.1103 377.331 46.429 381.256 46.429C383.648 46.429 385.488 45.9843 386.776 45.095C388.064 44.2056 388.708 43.1016 388.708 41.783C388.708 40.4643 388.309 39.575 387.512 39.115C386.745 38.6856 385.197 38.471 382.866 38.471H378.404C375.92 38.471 374.141 38.057 373.068 37.229C371.995 36.401 371.458 35.389 371.458 34.193C371.458 32.9663 371.841 31.9543 372.608 31.157C373.375 30.329 374.739 29.317 376.702 28.121C373.145 27.109 371.366 24.7783 371.366 21.129C371.366 18.829 372.194 16.9736 373.85 15.563C375.506 14.1523 377.99 13.447 381.302 13.447C383.295 13.447 384.997 13.8303 386.408 14.597C386.224 13.769 386.132 13.0176 386.132 12.343C386.132 10.6256 386.592 9.38364 387.512 8.61698C388.432 7.85031 389.459 7.46698 390.594 7.46698C391.729 7.46698 392.633 7.77364 393.308 8.38698C394.013 8.96964 394.366 9.78231 394.366 10.825C394.366 11.8676 394.09 12.6496 393.538 13.171C392.986 13.6616 392.311 13.907 391.514 13.907C390.747 13.907 390.103 13.7076 389.582 13.309C389.091 12.8796 388.831 12.2816 388.8 11.515ZM379.048 20.117V22.601C379.048 24.6556 379.217 26.051 379.554 26.787C379.922 27.523 380.459 27.891 381.164 27.891C381.9 27.891 382.421 27.5383 382.728 26.833C383.065 26.097 383.234 24.6096 383.234 22.371V20.117C383.234 17.725 383.081 16.161 382.774 15.425C382.467 14.6583 381.946 14.275 381.21 14.275C380.505 14.275 379.968 14.6736 379.6 15.471C379.232 16.2376 379.048 17.7863 379.048 20.117ZM405.093 36.263C401.137 36.263 398.162 35.251 396.169 33.227C394.206 31.1723 393.225 28.3356 393.225 24.717C393.225 21.0676 394.329 18.277 396.537 16.345C398.775 14.413 401.612 13.447 405.047 13.447C412.008 13.447 415.351 16.943 415.075 23.935H402.103V25.729C402.103 28.7343 402.486 31.0036 403.253 32.537C404.019 34.0703 405.353 34.837 407.255 34.837C410.812 34.837 413.143 32.9356 414.247 29.133L415.075 29.271C414.492 31.479 413.434 33.1963 411.901 34.423C410.398 35.6496 408.129 36.263 405.093 36.263ZM402.149 23.015H406.887V20.761C406.887 18.277 406.733 16.5903 406.427 15.701C406.151 14.781 405.568 14.321 404.679 14.321C403.82 14.321 403.176 14.8116 402.747 15.793C402.348 16.7436 402.149 18.3996 402.149 20.761V23.015ZM416.713 13.907H427.799V18.139C428.811 15.011 431.035 13.447 434.469 13.447C437.935 13.447 440.035 15.103 440.771 18.415C441.845 15.103 444.099 13.447 447.533 13.447C452.041 13.447 454.295 16.0076 454.295 21.129V34.975H456.871V35.803H444.129V34.975H445.739V20.025C445.739 17.6943 445.54 16.3296 445.141 15.931C444.957 15.747 444.712 15.655 444.405 15.655C443.516 15.655 442.734 16.253 442.059 17.449C441.385 18.645 441.047 20.163 441.047 22.003V34.975H442.703V35.803H430.881V34.975H432.491V20.025C432.491 17.6943 432.292 16.3296 431.893 15.931C431.709 15.747 431.464 15.655 431.157 15.655C430.299 15.655 429.517 16.3143 428.811 17.633C428.137 18.921 427.799 20.4696 427.799 22.279V34.975H429.455V35.803H416.713V34.975H419.243V14.735H416.713V13.907ZM469.645 36.263C465.689 36.263 462.715 35.251 460.721 33.227C458.759 31.1723 457.777 28.3356 457.777 24.717C457.777 21.0676 458.881 18.277 461.089 16.345C463.328 14.413 466.165 13.447 469.599 13.447C476.561 13.447 479.903 16.943 479.627 23.935H466.655V25.729C466.655 28.7343 467.039 31.0036 467.805 32.537C468.572 34.0703 469.906 34.837 471.807 34.837C475.365 34.837 477.695 32.9356 478.799 29.133L479.627 29.271C479.045 31.479 477.987 33.1963 476.453 34.423C474.951 35.6496 472.681 36.263 469.645 36.263ZM466.701 23.015H471.439V20.761C471.439 18.277 471.286 16.5903 470.979 15.701C470.703 14.781 470.121 14.321 469.231 14.321C468.373 14.321 467.729 14.8116 467.299 15.793C466.901 16.7436 466.701 18.3996 466.701 20.761V23.015ZM481.358 13.907H492.444V18.139C492.935 16.7283 493.686 15.5936 494.698 14.735C495.71 13.8763 497.243 13.447 499.298 13.447C504.051 13.447 506.428 16.0076 506.428 21.129V34.975H509.004V35.803H495.986V34.975H497.872V20.025C497.872 18.185 497.749 17.0043 497.504 16.483C497.259 15.931 496.814 15.655 496.17 15.655C495.189 15.655 494.315 16.299 493.548 17.587C492.812 18.875 492.444 20.439 492.444 22.279V34.975H494.422V35.803H481.358V34.975H483.888V14.735H481.358V13.907ZM511.687 29.225V14.735H509.157V13.907H511.687V7.97298L520.243 5.85698V13.907H526.223V14.735H520.243V30.237C520.243 31.6783 520.381 32.7363 520.657 33.411C520.964 34.0856 521.577 34.423 522.497 34.423C523.417 34.423 524.215 33.963 524.889 33.043C525.595 32.123 526.055 30.8656 526.269 29.271L527.051 29.363C526.806 31.479 526.131 33.1656 525.027 34.423C523.923 35.6496 522.099 36.263 519.553 36.263C517.008 36.263 515.061 35.757 513.711 34.745C512.362 33.733 511.687 31.893 511.687 29.225ZM13.6995 91.297C15.2328 91.297 16.5822 90.883 17.7475 90.055C18.9435 89.227 19.5415 87.985 19.5415 86.329C19.5415 84.6423 18.8975 83.3543 17.6095 82.465C16.3522 81.5756 14.5428 80.809 12.1815 80.165C9.85085 79.4903 8.14885 78.9076 7.07551 78.417C6.03285 77.9263 5.03618 77.2823 4.08551 76.485C2.18418 74.8903 1.23351 72.4216 1.23351 69.079C1.23351 66.3496 2.19951 64.0036 4.13151 62.041C6.09418 60.0783 8.76218 59.097 12.1355 59.097C13.7608 59.097 15.4475 59.3423 17.1955 59.833C18.9742 60.293 20.0782 60.523 20.5075 60.523C20.9368 60.523 21.3202 60.2163 21.6575 59.603H22.1635L22.4855 68.895H21.7495C20.2775 66.227 18.7288 64.0956 17.1035 62.501C15.5088 60.8756 13.7608 60.063 11.8595 60.063C9.98885 60.063 8.53218 60.5076 7.48951 61.397C6.44685 62.2556 5.92551 63.421 5.92551 64.893C5.92551 66.3343 6.53885 67.4536 7.76551 68.251C9.02285 69.0176 10.5562 69.6463 12.3655 70.137C14.1748 70.6276 15.3555 70.965 15.9075 71.149C16.4902 71.333 17.1955 71.5936 18.0235 71.931C18.8822 72.2376 19.5722 72.575 20.0935 72.943C20.6455 73.2803 21.2128 73.725 21.7955 74.277C22.4088 74.7983 22.8842 75.381 23.2215 76.025C24.0495 77.497 24.4635 79.245 24.4635 81.269C24.4635 84.581 23.4208 87.249 21.3355 89.273C19.2808 91.2663 16.5668 92.263 13.1935 92.263C11.4455 92.263 9.43685 92.033 7.16751 91.573C4.92885 91.113 3.68685 90.883 3.44151 90.883C3.01218 90.883 2.59818 91.343 2.19951 92.263H1.55551L1.09551 81.315H1.87751C3.22685 83.983 4.94418 86.3136 7.02951 88.307C9.14551 90.3003 11.3688 91.297 13.6995 91.297ZM24.7197 70.735V69.907H38.0597V70.735H35.5757L40.5897 86.007L45.9257 70.735H42.8437V69.907H49.3297V70.735H47.0297L38.4277 95.529C37.4157 98.4116 36.2811 100.42 35.0237 101.555C33.7664 102.72 32.2331 103.303 30.4237 103.303C28.6144 103.303 27.1884 102.889 26.1457 102.061C25.1031 101.233 24.5817 100.175 24.5817 98.887C24.5817 97.599 24.9191 96.6176 25.5937 95.943C26.2684 95.2683 27.1577 94.931 28.2617 94.931C30.8071 94.931 32.0797 95.989 32.0797 98.105C32.0797 98.565 31.9877 99.117 31.8037 99.761H30.1937C29.9484 100.466 29.9177 101.049 30.1017 101.509C30.2857 101.969 30.6997 102.199 31.3437 102.199C32.6011 102.199 33.7204 101.57 34.7017 100.313C35.6831 99.0863 36.6184 97.2003 37.5077 94.655L38.5197 91.803H34.4717L26.6057 70.735H24.7197ZM49.0976 92.263V84.029H49.6496C50.4469 86.697 51.5203 88.5676 52.8696 89.641C54.2189 90.7143 55.9056 91.251 57.9296 91.251C61.0576 91.251 62.6216 90.2543 62.6216 88.261C62.6216 87.4023 62.2383 86.7583 61.4716 86.329C60.2756 85.6543 58.7423 85.133 56.8716 84.765C54.7863 84.213 53.0383 83.477 51.6276 82.557C49.9409 81.453 49.0976 79.705 49.0976 77.313C49.0976 74.921 49.8336 73.0196 51.3056 71.609C52.7776 70.1676 54.7403 69.447 57.1936 69.447C58.6963 69.447 60.2449 69.7996 61.8396 70.505C62.4223 70.7503 62.8669 70.873 63.1736 70.873C63.4803 70.873 63.7409 70.7656 63.9556 70.551C64.1703 70.3363 64.4309 69.9376 64.7376 69.355H65.2436V76.393H64.6916C63.1276 72.4063 60.7049 70.413 57.4236 70.413C55.9823 70.413 54.9089 70.6736 54.2036 71.195C53.4983 71.6856 53.1456 72.3143 53.1456 73.081C53.1456 73.541 53.2529 73.909 53.4676 74.185C53.6823 74.4303 53.8509 74.6143 53.9736 74.737C54.0963 74.8596 54.2956 74.9976 54.5716 75.151C54.8476 75.2736 55.0776 75.381 55.2616 75.473C55.4456 75.5343 55.7216 75.6263 56.0896 75.749C56.4883 75.8716 56.7796 75.9483 56.9636 75.979C59.0489 76.5003 60.5516 76.9603 61.4716 77.359C62.3916 77.727 63.2656 78.187 64.0936 78.739C65.7803 79.9043 66.6236 81.7903 66.6236 84.397C66.6236 86.973 65.8569 88.9356 64.3236 90.285C62.7903 91.6036 60.6896 92.263 58.0216 92.263C56.1203 92.263 54.2803 91.8183 52.5016 90.929C52.1336 90.6836 51.8423 90.561 51.6276 90.561C50.9529 90.561 50.2936 91.1283 49.6496 92.263H49.0976ZM69.8357 85.225V70.735H67.3057V69.907H69.8357V63.973L78.3917 61.857V69.907H84.3717V70.735H78.3917V86.237C78.3917 87.6783 78.5297 88.7363 78.8057 89.411C79.1124 90.0856 79.7257 90.423 80.6457 90.423C81.5657 90.423 82.363 89.963 83.0377 89.043C83.743 88.123 84.203 86.8656 84.4177 85.271L85.1997 85.363C84.9544 87.479 84.2797 89.1656 83.1757 90.423C82.0717 91.6496 80.247 92.263 77.7017 92.263C75.1564 92.263 73.209 91.757 71.8597 90.745C70.5104 89.733 69.8357 87.893 69.8357 85.225ZM97.7372 92.263C93.7812 92.263 90.8065 91.251 88.8132 89.227C86.8505 87.1723 85.8692 84.3356 85.8692 80.717C85.8692 77.0676 86.9732 74.277 89.1812 72.345C91.4199 70.413 94.2565 69.447 97.6912 69.447C104.653 69.447 107.995 72.943 107.719 79.935H94.7472V81.729C94.7472 84.7343 95.1305 87.0036 95.8972 88.537C96.6639 90.0703 97.9979 90.837 99.8992 90.837C103.457 90.837 105.787 88.9356 106.891 85.133L107.719 85.271C107.137 87.479 106.079 89.1963 104.545 90.423C103.043 91.6496 100.773 92.263 97.7372 92.263ZM94.7932 79.015H99.5312V76.761C99.5312 74.277 99.3779 72.5903 99.0712 71.701C98.7952 70.781 98.2125 70.321 97.3232 70.321C96.4645 70.321 95.8205 70.8116 95.3912 71.793C94.9925 72.7436 94.7932 74.3996 94.7932 76.761V79.015ZM109.358 69.907H120.444V74.139C121.456 71.011 123.679 69.447 127.114 69.447C130.579 69.447 132.68 71.103 133.416 74.415C134.489 71.103 136.743 69.447 140.178 69.447C144.686 69.447 146.94 72.0076 146.94 77.129V90.975H149.516V91.803H136.774V90.975H138.384V76.025C138.384 73.6943 138.185 72.3296 137.786 71.931C137.602 71.747 137.357 71.655 137.05 71.655C136.161 71.655 135.379 72.253 134.704 73.449C134.029 74.645 133.692 76.163 133.692 78.003V90.975H135.348V91.803H123.526V90.975H125.136V76.025C125.136 73.6943 124.937 72.3296 124.538 71.931C124.354 71.747 124.109 71.655 123.802 71.655C122.943 71.655 122.161 72.3143 121.456 73.633C120.781 74.921 120.444 76.4696 120.444 78.279V90.975H122.1V91.803H109.358V90.975H111.888V70.735H109.358V69.907Z" fill="url(#paint0_linear_2128_829)"/>
<defs>
<linearGradient id="paint0_linear_2128_829" x1="15.8748" y1="32.803" x2="490.81" y2="71.6954" gradientUnits="userSpaceOnUse">
<stop stop-color="#0048FF"/>
<stop offset="1" stop-color="#D6008D"/>
</linearGradient>
</defs>
</svg>
